<?xml version="1.0" standalone="no"?>
<!DOCTYPE svg PUBLIC "-//W3C//DTD SVG 20010904//EN"
 "http://www.w3.org/TR/2001/REC-SVG-20010904/DTD/svg10.dtd">
<svg version="1.0" xmlns="http://www.w3.org/2000/svg"
 width="400.000000pt" height="400.000000pt" viewBox="0 0 400.000000 400.000000"
 preserveAspectRatio="xMidYMid meet">

<g transform="translate(0.000000,400.000000) scale(0.100000,-0.100000)"
fill="#000000" stroke="none">
<path d="M450 3989 c-30 -5 -74 -18 -97 -29 -24 -11 -45 -20 -49 -20 -12 0
-102 -67 -140 -104 -37 -38 -104 -128 -104 -140 0 -4 -9 -25 -20 -49 -10 -23
-24 -71 -30 -107 -14 -90 -14 -2991 0 -3080 27 -166 155 -332 312 -404 127
-58 68 -56 1678 -56 1593 0 1553 -1 1667 51 120 54 228 163 283 284 51 112 50
77 50 1665 0 1610 2 1551 -56 1678 -72 157 -238 285 -404 312 -82 13 -3010 12
-3090 -1z m3130 -230 c74 -35 141 -103 176 -175 l29 -59 3 -1475 c2 -963 -1
-1498 -8 -1541 -23 -153 -136 -266 -289 -289 -43 -7 -578 -10 -1541 -8 l-1475
3 -59 29 c-72 35 -140 102 -175 176 l-26 55 0 1530 0 1530 28 53 c15 29 43 70
62 90 36 41 119 90 169 103 17 4 711 6 1541 6 l1510 -2 55 -26z"/>
<path d="M1497 3269 c-86 -13 -196 -69 -249 -128 -48 -53 -100 -145 -116 -202
l-10 -37 123 -81 c67 -44 129 -83 137 -86 10 -4 22 6 36 28 23 39 71 78 122
98 28 11 153 14 610 17 l576 3 18 92 c10 51 24 126 31 167 8 41 17 90 21 108
l7 32 -624 -1 c-343 -1 -650 -5 -682 -10z"/>
<path d="M1572 2063 l3 -188 473 -3 472 -2 0 190 0 190 -475 0 -475 0 2 -187z"/>
<path d="M2594 1288 c-25 -55 -59 -91 -114 -120 l-45 -23 -531 -3 -531 -3 -22
-72 c-12 -40 -29 -90 -36 -112 -7 -22 -21 -66 -29 -97 -9 -32 -19 -64 -22 -73
-6 -13 54 -15 552 -15 620 0 767 7 837 39 25 12 48 21 51 21 14 0 85 56 119
93 40 44 105 166 109 206 3 22 -9 32 -88 77 -123 70 -223 124 -227 124 -2 0
-12 -19 -23 -42z"/>
</g>
</svg>
