<?xml version="1.0" encoding="UTF-8"?>
<svg width="960" height="960" version="1.1" viewBox="0 0 960 960" xmlns="http://www.w3.org/2000/svg" xmlns:cc="http://creativecommons.org/ns#" xmlns:dc="http://purl.org/dc/elements/1.1/" xmlns:rdf="http://www.w3.org/1999/02/22-rdf-syntax-ns#">
 <!-- Generator: Sketch 64 (93537) - https://sketch.com -->
 <title>Ξ</title>
 <desc>Created with Sketch.</desc>
 <g fill="none" fill-rule="evenodd">
  <g id="Ξ" transform="translate(-.022 .249)" fill="#000" fill-rule="evenodd">
   <path d="m298.69 281.05c10.897-30.648 41.205-45.972 90.923-45.972h289.12l21.454-113.4h-332.02c-40.183 0-72.194 8.5134-96.031 25.54s-41.205 44.61-52.102 82.75zm320.79 242.12v-107.27h-269.71v107.27zm-27.584 314.66c40.183 0 72.194-8.5134 96.031-25.54 23.838-17.027 41.205-44.61 52.102-82.75l-93.988-52.102c-7.4918 22.475-18.389 37.629-32.692 45.462-14.303 7.8324-35.075 11.749-62.318 11.749h-259.49l-31.67 103.18z" fill="#000" stroke-width="20.032"/>
  </g>
 </g>
 <metadata>
  <rdf:RDF>
   <cc:Work rdf:about="">
    <dc:title>Ξ</dc:title>
   </cc:Work>
  </rdf:RDF>
 </metadata>
</svg>
