<?xml version="1.0" encoding="UTF-8"?>
<svg version="1.1" xmlns="http://www.w3.org/2000/svg" width="400" height="419">
<path d="M0 0 C1.18149628 -0.00014603 2.36299255 -0.00029205 3.58029175 -0.0004425 C7.45971556 0.00025047 11.3390905 0.00801394 15.21850586 0.01586914 C17.91849236 0.0182936 20.61847882 0.01920762 23.31846619 0.02015686 C29.68242411 0.02325436 36.04636467 0.03144627 42.41031498 0.04150635 C49.66068562 0.0527168 56.91105713 0.05819033 64.16143429 0.06320179 C79.06458237 0.07363033 93.96771425 0.09119891 108.87084961 0.11352539 C108.73553833 0.85728424 108.60022705 1.60104309 108.46081543 2.36734009 C108.28223999 3.34915253 108.10366455 4.33096497 107.91967773 5.3425293 C107.74311646 6.31316315 107.56655518 7.283797 107.38464355 8.28384399 C106.70669965 12.01756888 106.03490398 15.75230738 105.37084961 19.48852539 C105.19489258 20.46692383 105.19489258 20.46692383 105.01538086 21.46508789 C104.2220918 25.93480261 103.50906821 30.41380504 102.82202148 34.90112305 C102.64344604 36.06616364 102.46487061 37.23120422 102.28088379 38.43154907 C102.07791687 39.75912735 102.07791687 39.75912735 101.87084961 41.11352539 C101.31592237 41.11591374 100.76099512 41.1183021 100.1892519 41.12076283 C86.63196283 41.1801247 73.0748505 41.25599264 59.51775074 41.3492403 C52.96139076 41.39384559 46.40509151 41.43312337 39.84863281 41.45996094 C33.51371966 41.48609208 27.17904146 41.52656368 20.84427452 41.57671165 C18.43517684 41.59331416 16.02603859 41.60486941 13.61689186 41.6111393 C-6.03760151 40.84657847 -6.03760151 40.84657847 -24.12915039 47.11352539 C-25.11915039 47.11352539 -26.10915039 47.11352539 -27.12915039 47.11352539 C-27.37665039 47.64977539 -27.62415039 48.18602539 -27.87915039 48.73852539 C-29.42612014 51.67776792 -31.25929408 54.37106947 -33.12915039 57.11352539 C-36.90703245 55.75753558 -39.88662898 54.03191985 -43.12915039 51.67602539 C-46.98921889 48.88350709 -50.8446921 46.25575454 -55.11352539 44.12133789 C-59.90265466 41.72677325 -59.90265466 41.72677325 -60.95727539 38.87133789 C-61.47039767 30.63805772 -56.09872536 22.11039638 -50.93774414 16.03930664 C-42.51399252 7.06973958 -33.35534452 2.61127487 -21.12915039 1.11352539 C-19.83380875 0.94345474 -18.5384671 0.77338409 -17.20387268 0.59815979 C-11.46768355 -0.03267352 -5.76515405 -0.01885876 0 0 Z " fill="#090909" transform="translate(173.129150390625,114.886474609375)"/>
<path d="M0 0 C1.41965142 0.42771549 2.8356224 0.86765543 4.25 1.3125 C5.43335938 1.67794922 5.43335938 1.67794922 6.640625 2.05078125 C9.15452604 3.06216859 10.86628003 4.34410149 13 6 C14.69274948 6.96535394 16.40260712 7.90108802 18.125 8.8125 C19.08277344 9.33457031 20.04054688 9.85664063 21.02734375 10.39453125 C22.9880843 11.45348574 24.95941785 12.49308726 26.94140625 13.51171875 C27.84761719 14.00285156 28.75382813 14.49398438 29.6875 15 C30.51636719 15.433125 31.34523438 15.86625 32.19921875 16.3125 C34 18 34 18 34.44921875 20.8046875 C33.93946954 24.43055581 32.84796884 26.90164682 31.125 30.125 C30.59132813 31.13820313 30.05765625 32.15140625 29.5078125 33.1953125 C29.01023437 34.12085938 28.51265625 35.04640625 28 36 C27.48373047 37.08861328 27.48373047 37.08861328 26.95703125 38.19921875 C24.91453802 42.04244071 22.08957359 44.6368088 18 46 C18 46.66 18 47.32 18 48 C16.10545176 48.96087136 14.20930419 49.91858969 12.3125 50.875 C11.25675781 51.40867187 10.20101562 51.94234375 9.11328125 52.4921875 C8.08589844 52.98976563 7.05851563 53.48734375 6 54 C5.25105469 54.37382812 4.50210938 54.74765625 3.73046875 55.1328125 C-4.36982841 57.70543907 -13.38993204 57.13976126 -21.79345703 57.11352539 C-23.03362076 57.11367142 -24.27378448 57.11381744 -25.55152893 57.1139679 C-28.92068863 57.11339445 -32.28978552 57.1084116 -35.65893412 57.10139394 C-39.19163735 57.09510289 -42.72434159 57.09455208 -46.25704956 57.09336853 C-52.93263431 57.09027207 -59.60820249 57.08208158 -66.28377998 57.07201904 C-73.88966898 57.06080534 -81.4955588 57.05533425 -89.10145402 57.05032361 C-104.73431224 57.0398974 -120.36715398 57.02233087 -136 57 C-135.80011475 56.33395752 -135.60022949 55.66791504 -135.39428711 54.98168945 C-135.1288208 54.09698975 -134.86335449 53.21229004 -134.58984375 52.30078125 C-134.3280835 51.42848877 -134.06632324 50.55619629 -133.79663086 49.6574707 C-133.05034594 47.16794838 -132.30630605 44.67776376 -131.5625 42.1875 C-131.04181802 40.45828775 -130.52097035 38.72912539 -130 37 C-129.66742188 35.88496094 -129.33484375 34.76992188 -128.9921875 33.62109375 C-128.64414063 32.46738281 -128.29609375 31.31367188 -127.9375 30.125 C-127.61652344 29.05507813 -127.29554688 27.98515625 -126.96484375 26.8828125 C-126.14282665 24.42674522 -125.18319167 22.29137716 -124 20 C-122.80698273 19.98969254 -121.61396545 19.97938507 -120.38479614 19.96876526 C-109.11529575 19.87080469 -97.84584778 19.76805034 -86.57643318 19.66066074 C-80.78339573 19.60560967 -74.99035309 19.55221923 -69.19726562 19.50268555 C-63.60161069 19.45477788 -58.006013 19.40242754 -52.41042709 19.34705925 C-50.28073435 19.32675469 -48.15102599 19.30802294 -46.02130508 19.29092598 C-43.02732989 19.26661634 -40.0334602 19.23660113 -37.03955078 19.20532227 C-36.1684819 19.1995668 -35.29741302 19.19381134 -34.39994812 19.18788147 C-24.01413431 19.06538184 -15.38113338 18.74027051 -6.8125 12.375 C-3.92072162 8.58577315 -2.00622689 4.30845446 0 0 Z " fill="#0A0A0A" transform="translate(261,310)"/>
<path d="M0 0 C32.01 0 64.02 0 97 0 C96.67 12.87 96.34 25.74 96 39 C64.32 39 32.64 39 0 39 C0 26.13 0 13.26 0 0 Z " fill="#080808" transform="translate(157,218)"/>
<path d="M0 0 C0.66 0.33 1.32 0.66 2 1 C0.38113585 2.67262717 -1.2452729 4.33795537 -2.875 6 C-3.77992187 6.928125 -4.68484375 7.85625 -5.6171875 8.8125 C-8 11 -8 11 -10 11 C-8.55218207 7.55571735 -6.72305391 5.63869038 -3.875 3.25 C-3.15054688 2.63640625 -2.42609375 2.0228125 -1.6796875 1.390625 C-0.84824219 0.70226562 -0.84824219 0.70226562 0 0 Z " fill="#5D5D5D" transform="translate(131,123)"/>
</svg>
